<svg xmlns="http://www.w3.org/2000/svg" version="1.1" viewBox="0 0 96 96">
    <g>
        <path d="M89,4H7c-1.6,0-2.9,1.3-2.9,2.9v82.2c0,1.6,1.3,2.9,2.9,2.9h82c1.6,0,2.9-1.3,2.9-2.9V6.9c0-1.6-1.3-2.9-2.9-2.9ZM83,84.1H13V11.9h70.1v72.1Z"/>
        <g>
            <path d="M20.3,31.6h12.1c6.4,0,11.1,2.1,11.1,7.9s-2.4,6.7-5.6,7.3h0c3.9.8,6.6,3,6.6,7.9s-4.8,8.8-11.3,8.8h-12.8v-31.9ZM31.8,44.9c4.2,0,6.5-1.3,6.5-4.4s-1.9-4.2-6.4-4.2h-6.3v8.6h6.3ZM32.6,58.9c4.6,0,6.6-1.5,6.6-4.7s-2.6-4.7-7.1-4.7h-6.4v9.4h7Z"/>
            <path d="M49.7,51.9v-20.3h5.4v19.8c0,4.9,2.1,7.8,7,7.8s7-2.8,7-7.7v-19.8h5.3v20.2c0,7.2-4.1,12.2-12.3,12.2s-12.4-4.9-12.4-12.2Z"/>
        </g>
    </g>
  </svg>